HIERARCHY
ROOT Hips
{
    OFFSET   0.000000   0.000000   0.000000
    CHANNELS 6 Xposition Yposition Zposition Zrotation Xrotation Yrotation
    JOINT Chest
    {
        OFFSET   0.000000   8.007230   0.000000
        CHANNELS 3 Zrotation Xrotation Yrotation
        JOINT Chest2
        {
            OFFSET   0.000000  22.077100   0.000000
            CHANNELS 3 Zrotation Xrotation Yrotation
            JOINT Neck
            {
                OFFSET   0.000000  23.254700   0.000000
                CHANNELS 3 Zrotation Xrotation Yrotation
                JOINT Head
                {
                    OFFSET   0.000010  14.370000   1.956610
                    CHANNELS 3 Zrotation Xrotation Yrotation
                    End Site
                    {
                        OFFSET   0.000000  19.566000   0.000000
                    }
                }
            }
            JOINT LeftCollar
            {
                OFFSET   3.911900  19.017000  -0.467063
                CHANNELS 3 Zrotation Xrotation Yrotation
                JOINT LeftShoulder
                {
                    OFFSET  10.383700   0.000000   0.000000
                    CHANNELS 3 Zrotation Xrotation Yrotation
                    JOINT LeftElbow
                    {
                        OFFSET  26.662100   0.001671   0.000522
                        CHANNELS 3 Zrotation Xrotation Yrotation
                        JOINT LeftWrist
                        {
                            OFFSET  28.869000   0.000037  -0.000114
                            CHANNELS 3 Zrotation Xrotation Yrotation
                            JOINT LeftFinger0
                            {
                                OFFSET   2.044650  -2.323450   3.252850
                                CHANNELS 3 Zrotation Xrotation Yrotation
                                JOINT LeftFinger01
                                {
                                    OFFSET   3.088140   0.000000   0.000000
                                    CHANNELS 3 Zrotation Xrotation Yrotation
                                    JOINT LeftFinger02
                                    {
                                        OFFSET   2.639460   0.000000   0.000000
                                        CHANNELS 3 Zrotation Xrotation Yrotation
                                        End Site
                                        {
                                            OFFSET   2.582190   0.000000   0.000000
                                        }
                                    }
                                }
                            }
                            JOINT LeftFinger1
                            {
                                OFFSET   8.364480   0.000000   3.252850
                                CHANNELS 3 Zrotation Xrotation Yrotation
                                JOINT LeftFinger11
                                {
                                    OFFSET   4.646930   0.000000   0.000000
                                    CHANNELS 3 Zrotation Xrotation Yrotation
                                    JOINT LeftFinger12
                                    {
                                        OFFSET   2.323470   0.000000   0.000000
                                        CHANNELS 3 Zrotation Xrotation Yrotation
                                        End Site
                                        {
                                            OFFSET   2.273050   0.000000   0.000000
                                        }
                                    }
                                }
                            }
                            JOINT LeftFinger2
                            {
                                OFFSET   8.364490   0.000016   1.078090
                                CHANNELS 3 Zrotation Xrotation Yrotation
                                JOINT LeftFinger21
                                {
                                    OFFSET   5.111620   0.000000   0.000000
                                    CHANNELS 3 Zrotation Xrotation Yrotation
                                    JOINT LeftFinger22
                                    {
                                        OFFSET   2.788150   0.000013   0.000000
                                        CHANNELS 3 Zrotation Xrotation Yrotation
                                        End Site
                                        {
                                            OFFSET   2.727660   0.000000   0.000000
                                        }
                                    }
                                }
                            }
                            JOINT LeftFinger3
                            {
                                OFFSET   7.899780   0.000016  -1.078090
                                CHANNELS 3 Zrotation Xrotation Yrotation
                                JOINT LeftFinger31
                                {
                                    OFFSET   4.646930   0.000000   0.000000
                                    CHANNELS 3 Zrotation Xrotation Yrotation
                                    JOINT LeftFinger32
                                    {
                                        OFFSET   2.323470   0.000000   0.000000
                                        CHANNELS 3 Zrotation Xrotation Yrotation
                                        End Site
                                        {
                                            OFFSET   2.273050   0.000000   0.000000
                                        }
                                    }
                                }
                            }
                            JOINT LeftFinger4
                            {
                                OFFSET   7.435080   0.000000  -3.252850
                                CHANNELS 3 Zrotation Xrotation Yrotation
                                JOINT LeftFinger41
                                {
                                    OFFSET   3.717550   0.000000   0.000000
                                    CHANNELS 3 Zrotation Xrotation Yrotation
                                    JOINT LeftFinger42
                                    {
                                        OFFSET   1.858760   0.000000   0.000000
                                        CHANNELS 3 Zrotation Xrotation Yrotation
                                        End Site
                                        {
                                            OFFSET   1.818440   0.000000   0.000000
                                        }
                                    }
                                }
                            }
                        }
                    }
                }
            }
            JOINT RightCollar
            {
                OFFSET  -3.911900  19.017000  -0.467064
                CHANNELS 3 Zrotation Xrotation Yrotation
                JOINT RightShoulder
                {
                    OFFSET -10.383700   0.000000   0.000000
                    CHANNELS 3 Zrotation Xrotation Yrotation
                    JOINT RightElbow
                    {
                        OFFSET -26.662100   0.001633   0.000260
                        CHANNELS 3 Zrotation Xrotation Yrotation
                        JOINT RightWrist
                        {
                            OFFSET -28.869000  -0.000045  -0.000080
                            CHANNELS 3 Zrotation Xrotation Yrotation
                            JOINT RightFinger0
                            {
                                OFFSET  -2.044660  -2.323490   3.252850
                                CHANNELS 3 Zrotation Xrotation Yrotation
                                JOINT RightFinger01
                                {
                                    OFFSET  -3.088140   0.000000   0.000000
                                    CHANNELS 3 Zrotation Xrotation Yrotation
                                    JOINT RightFinger02
                                    {
                                        OFFSET  -2.639450   0.000000   0.000000
                                        CHANNELS 3 Zrotation Xrotation Yrotation
                                        End Site
                                        {
                                            OFFSET  -2.582190   0.000000   0.000000
                                        }
                                    }
                                }
                            }
                            JOINT RightFinger1
                            {
                                OFFSET  -8.364480   0.000000   3.252850
                                CHANNELS 3 Zrotation Xrotation Yrotation
                                JOINT RightFinger11
                                {
                                    OFFSET  -4.646920   0.000000   0.000000
                                    CHANNELS 3 Zrotation Xrotation Yrotation
                                    JOINT RightFinger12
                                    {
                                        OFFSET  -2.323470   0.000000   0.000000
                                        CHANNELS 3 Zrotation Xrotation Yrotation
                                        End Site
                                        {
                                            OFFSET  -2.273050   0.000000   0.000000
                                        }
                                    }
                                }
                            }
                            JOINT RightFinger2
                            {
                                OFFSET  -8.364480   0.000000   1.078090
                                CHANNELS 3 Zrotation Xrotation Yrotation
                                JOINT RightFinger21
                                {
                                    OFFSET  -5.111610   0.000000   0.000000
                                    CHANNELS 3 Zrotation Xrotation Yrotation
                                    JOINT RightFinger22
                                    {
                                        OFFSET  -2.788160   0.000000   0.000000
                                        CHANNELS 3 Zrotation Xrotation Yrotation
                                        End Site
                                        {
                                            OFFSET  -2.727660   0.000000   0.000000
                                        }
                                    }
                                }
                            }
                            JOINT RightFinger3
                            {
                                OFFSET  -7.899780   0.000000  -1.078090
                                CHANNELS 3 Zrotation Xrotation Yrotation
                                JOINT RightFinger31
                                {
                                    OFFSET  -4.646930   0.000000   0.000000
                                    CHANNELS 3 Zrotation Xrotation Yrotation
                                    JOINT RightFinger32
                                    {
                                        OFFSET  -2.323470   0.000000   0.000000
                                        CHANNELS 3 Zrotation Xrotation Yrotation
                                        End Site
                                        {
                                            OFFSET  -2.273050   0.000000   0.000000
                                        }
                                    }
                                }
                            }
                            JOINT RightFinger4
                            {
                                OFFSET  -7.435090   0.000000  -3.252850
                                CHANNELS 3 Zrotation Xrotation Yrotation
                                JOINT RightFinger41
                                {
                                    OFFSET  -3.717550   0.000000   0.000000
                                    CHANNELS 3 Zrotation Xrotation Yrotation
                                    JOINT RightFinger42
                                    {
                                        OFFSET  -1.858760   0.000000   0.000000
                                        CHANNELS 3 Zrotation Xrotation Yrotation
                                        End Site
                                        {
                                            OFFSET  -1.818440   0.000000   0.000000
                                        }
                                    }
                                }
                            }
                        }
                    }
                }
            }
        }
    }
    JOINT LeftHip
    {
        OFFSET   9.782990   0.000000   0.000000
        CHANNELS 3 Zrotation Xrotation Yrotation
        JOINT LeftKnee
        {
            OFFSET  -0.000063 -41.789100   0.001657
            CHANNELS 3 Zrotation Xrotation Yrotation
            JOINT LeftAnkle
            {
                OFFSET   0.000078 -41.133200  -0.000113
                CHANNELS 3 Zrotation Xrotation Yrotation
                JOINT LeftToe
                {
                    OFFSET   0.000000  -6.358970  14.674500
                    CHANNELS 3 Zrotation Xrotation Yrotation
                    End Site
                    {
                        OFFSET   0.000000   0.000000   3.913200
                    }
                }
            }
        }
    }
    JOINT RightHip
    {
        OFFSET  -9.782990   0.000000   0.000000
        CHANNELS 3 Zrotation Xrotation Yrotation
        JOINT RightKnee
        {
            OFFSET   0.000053 -41.789200   0.000277
            CHANNELS 3 Zrotation Xrotation Yrotation
            JOINT RightAnkle
            {
                OFFSET   0.000030 -41.133200  -0.000150
                CHANNELS 3 Zrotation Xrotation Yrotation
                JOINT RightToe
                {
                    OFFSET   0.000000  -6.358960  14.674500
                    CHANNELS 3 Zrotation Xrotation Yrotation
                    End Site
                    {
                        OFFSET   0.000000   0.000000   3.913200
                    }
                }
            }
        }
    }
}
MOTION
Frames: 4
Frame Time:   0.016667
  0.719013  89.874400   0.695868  -0.801367 -11.338700  -1.790740  -0.684235   7.580620  -0.970638  -1.254210  15.171400  -1.873940   0.080076   2.221850   0.004084   0.132122   4.505510  -1.996380  -6.105660  -3.260900   1.068300 -52.597200  26.126900 -51.878700   2.198020 -19.760900 -82.943600  -8.727860 -66.262800  -1.985650  41.765100  26.928200 -64.448500 -14.200400   0.006320   0.001777  -2.100180   0.002548  -0.000825 -12.981100  -0.280548   1.205230 -10.623400   0.002461   0.000061  -7.436380   0.000671  -0.005601 -26.991200  -4.314790   8.402460 -28.305600   0.002981  -0.002606 -18.851500   0.002565   0.003752 -13.073600  -2.484380  10.573100 -13.303500   0.008300  -0.006572  -8.860140   0.005771   0.001801 -12.088500  -3.360820  15.308700 -18.810500   0.003507  -0.009104 -12.527800   0.001288   0.004925  10.088300   1.707170  12.027100  51.031100  20.335100  52.526300  -7.937040 -22.844400  82.009300 -30.827100 -52.009500   1.144130 -38.746900  19.744800  57.227300  20.688700   0.003054  -0.002618   5.344340  -0.000563  -0.002051  19.325500  -0.710578  -2.024320  15.822000   0.001833   0.002356  11.075400   0.001495  -0.000174  17.747200  -0.654520  -2.043120  17.758800   0.002040  -0.000064  11.827300   0.003064   0.002112  16.434800  -3.382800 -11.310900  16.769800   0.001747   0.001331  11.168700   0.002247   0.000198  16.272000  -3.350450 -11.320500  24.906100   0.001519   0.000716  16.587500   0.001516  -0.001257   1.439290  11.470800   2.542680   0.413631   2.400210  12.435400  -6.136570  -3.776590   2.324610  -0.000000   0.000000  -0.000000   0.763882  11.475700 -10.091800  -0.149265   2.441200  -9.866530  -6.328230  -0.065127   1.077180  -0.000000   0.000000   0.000000
  0.730095  89.874500   0.704843  -0.835491 -11.332800  -1.949990  -0.686779   7.560160  -1.001790  -1.255280  15.130800  -1.936870   0.053810   2.241660   0.004006   0.090817   4.545240  -2.315290  -6.094270  -3.230480   1.034020 -52.667100  26.054200 -51.832700   2.116790 -19.731700 -83.024800  -8.976570 -66.421000  -2.139720  41.721800  26.892400 -64.430600 -14.262600   0.006402   0.001754  -2.131280   0.002634  -0.000830 -12.996100  -0.283479   1.222020 -10.635700   0.002473   0.000030  -7.444950   0.000758  -0.005585 -26.948900  -4.319020   8.425670 -28.121200   0.003055  -0.002659 -18.728700   0.002629   0.003752 -13.076300  -2.492730  10.607200 -13.308100   0.008230  -0.006702  -8.863190   0.005776   0.001800 -12.089400  -3.363880  15.324200 -18.813200   0.003458  -0.009244 -12.529600   0.001300   0.004862  10.066600   1.717280  11.947700  51.088400  20.267800  52.459600  -7.859410 -22.717500  82.131700 -30.817200 -52.218200   0.954292 -38.718200  19.706300  57.282200  20.661900   0.003041  -0.002655   5.330980  -0.000578  -0.002042  19.393100  -0.680194  -1.930610  15.876700   0.001810   0.002380  11.113700   0.001481  -0.000085  17.813300  -0.626554  -1.948680  17.823800   0.002065  -0.000034  11.870600   0.003064   0.002192  16.506300  -3.352870 -11.164000  16.833800   0.001708   0.001372  11.211300   0.002192   0.000248  16.346700  -3.323170 -11.172800  25.004700   0.001511   0.000755  16.653100   0.001513  -0.001280   1.438030  11.495200   2.557340   0.402686   2.394950  12.512400  -6.127590  -3.800360   2.388350  -0.000000   0.000000   0.000000   0.753221  11.455000 -10.087600  -0.145439   2.444690  -9.834690  -6.325000  -0.066998   1.201240   0.000000   0.000000  -0.000000
  0.740705  89.874600   0.714018  -0.874058 -11.330200  -2.126350  -0.688015   7.546590  -1.024830  -1.254950  15.104000  -1.983460   0.023839   2.253790   0.003932   0.039601   4.569790  -2.468610  -6.091700  -3.217880   0.996270 -52.737900  25.995100 -51.793000   2.026970 -19.703500 -83.113000  -9.233660 -66.569000  -2.307650  41.710600  26.875800 -64.433000 -14.308000   0.006485   0.001721  -2.154020   0.002722  -0.000835 -13.011000  -0.285411   1.234720 -10.647900   0.002485  -0.000000  -7.453510   0.000850  -0.005569 -26.908900  -4.322900   8.447420 -27.949500   0.003127  -0.002715 -18.614400   0.002690   0.003752 -13.080400  -2.498130  10.624600 -13.312700   0.008160  -0.006828  -8.866250   0.005781   0.001800 -12.090600  -3.367060  15.332500 -18.815900   0.003411  -0.009383 -12.531400   0.001312   0.004798  10.058500   1.719450  11.881000  51.120900  20.228400  52.424500  -7.789900 -22.625600  82.227900 -30.857900 -52.422000   0.760717 -38.706200  19.669000  57.324200  20.647900   0.003028  -0.002690   5.323990  -0.000589  -0.002033  19.485500  -0.647191  -1.828450  15.951000   0.001785   0.002403  11.165700   0.001466   0.000000  17.892800  -0.596135  -1.845750  17.902200   0.002090  -0.000000  11.922900   0.003063   0.002268  16.586100  -3.317230 -10.993800  16.905000   0.001670   0.001415  11.258700   0.002140   0.000302  16.463900  -3.293430 -11.000900  25.171100   0.001504   0.000791  16.763900   0.001509  -0.001304   1.438290  11.523700   2.576290   0.389584   2.391040  12.595000  -6.118660  -3.825870   2.458670  -0.000000   0.000000   0.000000   0.742649  11.441200 -10.082300  -0.139790   2.448170  -9.803650  -6.321270  -0.070800   1.341700  -0.000000   0.000000   0.000000
  0.750056  89.874600   0.723504  -0.918030 -11.330200  -2.323020  -0.688020   7.542110  -1.034580  -1.253990  15.095100  -2.003190  -0.005656   2.255770   0.003855  -0.011937   4.574110  -2.454730  -6.097070  -3.221860   0.960194 -52.780100  25.969500 -51.772000   1.940830 -19.689400 -83.195400  -9.569620 -66.671900  -2.563050  41.823100  27.043700 -64.557200 -14.166700   0.006567   0.001697  -2.083380   0.002811  -0.000841 -12.973100  -0.282864   1.227240 -10.616900   0.002498   0.000000  -7.431800   0.000950  -0.005594 -26.869200  -4.326690   8.468630 -27.783700   0.003204  -0.002775 -18.504000   0.002736   0.003747 -13.036400  -2.482550  10.594000 -13.266500   0.008092  -0.006947  -8.835520   0.005789   0.001799 -12.079500  -3.365640  15.340700 -18.799400   0.003375  -0.009526 -12.520400   0.001317   0.004741  10.060700   1.716030  11.841400  51.124000  20.201600  52.412700  -7.718520 -22.571100  82.309400 -30.947300 -52.651700   0.543455 -38.706800  19.645700  57.358500  20.612900   0.003008  -0.002726   5.306490  -0.000591  -0.002026  19.561700  -0.607101  -1.706950  16.012300   0.001757   0.002413  11.208600   0.001454   0.000046  17.969700  -0.559510  -1.723170  17.977900   0.002124   0.000056  11.973300   0.003071   0.002336  16.655100  -3.262000 -10.769100  16.962000   0.001652   0.001470  11.296600   0.002100   0.000371  16.572400  -3.243420 -10.775100  25.316100   0.001500   0.000819  16.860500   0.001524  -0.001331   1.442720  11.559700   2.597880   0.371950   2.384460  12.678000  -6.109150  -3.852120   2.544920  -0.000000   0.000000  -0.000000   0.732267  11.446900 -10.071200  -0.127832   2.436390  -9.775910  -6.316790  -0.076646   1.500360   0.000000   0.000000  -0.000000
